HIERARCHY
ROOT reference
{
  OFFSET -65.3212 -1.93545 -120.338
  CHANNELS 6 Xposition Yposition Zposition Zrotation Xrotation Yrotation
  JOINT Hips
  {
    OFFSET 0 78.7191 0
    CHANNELS 6 Xposition Yposition Zposition Zrotation Xrotation Yrotation
    JOINT Chest
    {
      OFFSET 0 8.7983 -4.7612
      CHANNELS 6 Xposition Yposition Zposition Zrotation Xrotation Yrotation
      JOINT Chest2
      {
        OFFSET 0 8.0291 0.4195
        CHANNELS 6 Xposition Yposition Zposition Zrotation Xrotation Yrotation
        JOINT Chest3
        {
          OFFSET 0 9.9351 -2.2114
          CHANNELS 6 Xposition Yposition Zposition Zrotation Xrotation Yrotation
          JOINT Neck
          {
            OFFSET 0 22.3885 -0.4656
            CHANNELS 6 Xposition Yposition Zposition Zrotation Xrotation Yrotation
            JOINT Head
            {
              OFFSET -0.0001 12.643 3.4389
              CHANNELS 6 Xposition Yposition Zposition Zrotation Xrotation Yrotation
              End Site
              {
                OFFSET 0.0001 17.6655 0.5274
              }
            }
          }
          JOINT LeftCollar
          {
            OFFSET 2.2603 21.606 7.4023
            CHANNELS 6 Xposition Yposition Zposition Zrotation Xrotation Yrotation
            JOINT LeftShoulder
            {
              OFFSET 13.5163 -1.1332 -5.0146
              CHANNELS 6 Xposition Yposition Zposition Zrotation Xrotation Yrotation
              JOINT LeftElbow
              {
                OFFSET -0.0995 -28.05 -0.2431
                CHANNELS 6 Xposition Yposition Zposition Zrotation Xrotation Yrotation
                JOINT LeftWrist
                {
                  OFFSET 0.0679 -23.3996 -0.1402
                  CHANNELS 6 Xposition Yposition Zposition Zrotation Xrotation Yrotation
                  JOINT LeftFinger1
                  {
                    OFFSET 0.7932 -9.069 2.5189
                    CHANNELS 6 Xposition Yposition Zposition Zrotation Xrotation Yrotation
                    JOINT LeftFinger11
                    {
                      OFFSET -0.8272 -3.3923 0.5977
                      CHANNELS 6 Xposition Yposition Zposition Zrotation Xrotation Yrotation
                      JOINT LeftFinger12
                      {
                        OFFSET -0.5649 -2.3158 0.4082
                        CHANNELS 6 Xposition Yposition Zposition Zrotation Xrotation Yrotation
                        End Site
                        {
                          OFFSET -0.4919 -1.6479 0.2673
                        }
                      }
                    }
                  }
                  JOINT LeftFinger2
                  {
                    OFFSET 0.9159 -9.2044 0.2193
                    CHANNELS 6 Xposition Yposition Zposition Zrotation Xrotation Yrotation
                    JOINT LeftFinger21
                    {
                      OFFSET 0.0117 -4.1944 -0.0248
                      CHANNELS 6 Xposition Yposition Zposition Zrotation Xrotation Yrotation
                      JOINT LeftFinger22
                      {
                        OFFSET 0.0071 -2.3249 -0.0142
                        CHANNELS 6 Xposition Yposition Zposition Zrotation Xrotation Yrotation
                        End Site
                        {
                          OFFSET -0.1475 -2.0882 0.0028
                        }
                      }
                    }
                  }
                  JOINT LeftFinger3
                  {
                    OFFSET 0.6113 -8.7231 -2.0637
                    CHANNELS 6 Xposition Yposition Zposition Zrotation Xrotation Yrotation
                    JOINT LeftFinger31
                    {
                      OFFSET -0.1927 -3.8059 -0.2383
                      CHANNELS 6 Xposition Yposition Zposition Zrotation Xrotation Yrotation
                      JOINT LeftFinger32
                      {
                        OFFSET -0.1091 -2.1688 -0.1362
                        CHANNELS 6 Xposition Yposition Zposition Zrotation Xrotation Yrotation
                        End Site
                        {
                          OFFSET -0.2358 -1.9176 -0.0906
                        }
                      }
                    }
                  }
                  JOINT LeftFinger4
                  {
                    OFFSET -0.6151 -8.0947 -3.5641
                    CHANNELS 6 Xposition Yposition Zposition Zrotation Xrotation Yrotation
                    JOINT LeftFinger41
                    {
                      OFFSET -0.4882 -2.341 -0.6462
                      CHANNELS 6 Xposition Yposition Zposition Zrotation Xrotation Yrotation
                      JOINT LeftFinger42
                      {
                        OFFSET -0.3575 -1.7167 -0.4742
                        CHANNELS 6 Xposition Yposition Zposition Zrotation Xrotation Yrotation
                        End Site
                        {
                          OFFSET -0.4187 -1.5237 -0.3496
                        }
                      }
                    }
                  }
                  JOINT LeftFinger0
                  {
                    OFFSET -1.42 -1.8761 1.4223
                    CHANNELS 6 Xposition Yposition Zposition Zrotation Xrotation Yrotation
                    JOINT LeftFinger01
                    {
                      OFFSET -1.1471 -3.4929 2.6334
                      CHANNELS 6 Xposition Yposition Zposition Zrotation Xrotation Yrotation
                      JOINT LeftFinger02
                      {
                        OFFSET -0.823 -2.3 1.6571
                        CHANNELS 6 Xposition Yposition Zposition Zrotation Xrotation Yrotation
                        End Site
                        {
                          OFFSET -0.5822 -1.6914 1.1582
                        }
                      }
                    }
                  }
                }
              }
            }
          }
          JOINT RightCollar
          {
            OFFSET -2.2603 21.606 7.4023
            CHANNELS 6 Xposition Yposition Zposition Zrotation Xrotation Yrotation
            JOINT RightShoulder
            {
              OFFSET -13.5187 -1.1334 -5.0155
              CHANNELS 6 Xposition Yposition Zposition Zrotation Xrotation Yrotation
              JOINT RightElbow
              {
                OFFSET 0.0994 -28.0499 -0.2431
                CHANNELS 6 Xposition Yposition Zposition Zrotation Xrotation Yrotation
                JOINT RightWrist
                {
                  OFFSET -0.0679 -23.3996 -0.1402
                  CHANNELS 6 Xposition Yposition Zposition Zrotation Xrotation Yrotation
                  JOINT RightFinger1
                  {
                    OFFSET -0.7932 -9.0691 2.5189
                    CHANNELS 6 Xposition Yposition Zposition Zrotation Xrotation Yrotation
                    JOINT RightFinger11
                    {
                      OFFSET 0.8272 -3.3923 0.5977
                      CHANNELS 6 Xposition Yposition Zposition Zrotation Xrotation Yrotation
                      JOINT RightFinger12
                      {
                        OFFSET 0.565 -2.3158 0.4082
                        CHANNELS 6 Xposition Yposition Zposition Zrotation Xrotation Yrotation
                        End Site
                        {
                          OFFSET 0.4919 -1.6479 0.2673
                        }
                      }
                    }
                  }
                  JOINT RightFinger2
                  {
                    OFFSET -0.916 -9.2044 0.2193
                    CHANNELS 6 Xposition Yposition Zposition Zrotation Xrotation Yrotation
                    JOINT RightFinger21
                    {
                      OFFSET -0.0117 -4.1944 -0.0248
                      CHANNELS 6 Xposition Yposition Zposition Zrotation Xrotation Yrotation
                      JOINT RightFinger22
                      {
                        OFFSET -0.0071 -2.3249 -0.0142
                        CHANNELS 6 Xposition Yposition Zposition Zrotation Xrotation Yrotation
                        End Site
                        {
                          OFFSET 0.1475 -2.0882 0.0028
                        }
                      }
                    }
                  }
                  JOINT RightFinger3
                  {
                    OFFSET -0.6113 -8.7231 -2.0637
                    CHANNELS 6 Xposition Yposition Zposition Zrotation Xrotation Yrotation
                    JOINT RightFinger31
                    {
                      OFFSET 0.1927 -3.8059 -0.2383
                      CHANNELS 6 Xposition Yposition Zposition Zrotation Xrotation Yrotation
                      JOINT RightFinger32
                      {
                        OFFSET 0.1091 -2.1688 -0.1362
                        CHANNELS 6 Xposition Yposition Zposition Zrotation Xrotation Yrotation
                        End Site
                        {
                          OFFSET 0.2358 -1.9176 -0.0906
                        }
                      }
                    }
                  }
                  JOINT RightFinger4
                  {
                    OFFSET 0.6151 -8.0947 -3.564
                    CHANNELS 6 Xposition Yposition Zposition Zrotation Xrotation Yrotation
                    JOINT RightFinger41
                    {
                      OFFSET 0.4882 -2.341 -0.6462
                      CHANNELS 6 Xposition Yposition Zposition Zrotation Xrotation Yrotation
                      JOINT RightFinger42
                      {
                        OFFSET 0.3574 -1.7166 -0.4742
                        CHANNELS 6 Xposition Yposition Zposition Zrotation Xrotation Yrotation
                        End Site
                        {
                          OFFSET 0.4187 -1.5237 -0.3496
                        }
                      }
                    }
                  }
                  JOINT RightFinger0
                  {
                    OFFSET 1.4199 -1.8761 1.4221
                    CHANNELS 6 Xposition Yposition Zposition Zrotation Xrotation Yrotation
                    JOINT RightFinger01
                    {
                      OFFSET 1.1472 -3.4929 2.6336
                      CHANNELS 6 Xposition Yposition Zposition Zrotation Xrotation Yrotation
                      JOINT RightFinger02
                      {
                        OFFSET 0.8229 -2.3 1.6571
                        CHANNELS 6 Xposition Yposition Zposition Zrotation Xrotation Yrotation
                        End Site
                        {
                          OFFSET 0.5822 -1.6914 1.1582
                        }
                      }
                    }
                  }
                }
              }
            }
          }
        }
      }
    }
    JOINT RightHip
    {
      OFFSET -9.412 3.9771 -0.7758
      CHANNELS 6 Xposition Yposition Zposition Zrotation Xrotation Yrotation
      JOINT RightKnee
      {
        OFFSET -0.7531 -40.938 0
        CHANNELS 6 Xposition Yposition Zposition Zrotation Xrotation Yrotation
        JOINT RightAnkle
        {
          OFFSET 0 -40.1986 0
          CHANNELS 6 Xposition Yposition Zposition Zrotation Xrotation Yrotation
          JOINT RightToe
          {
            OFFSET 0 -4.4182 9.239
            CHANNELS 6 Xposition Yposition Zposition Zrotation Xrotation Yrotation
            End Site
            {
              OFFSET 0 0 6.1981
            }
          }
        }
      }
    }
    JOINT LeftHip
    {
      OFFSET 9.4119 3.9773 -0.7758
      CHANNELS 6 Xposition Yposition Zposition Zrotation Xrotation Yrotation
      JOINT LeftKnee
      {
        OFFSET 0.7532 -40.9383 0
        CHANNELS 6 Xposition Yposition Zposition Zrotation Xrotation Yrotation
        JOINT LeftAnkle
        {
          OFFSET 0 -40.1986 0
          CHANNELS 6 Xposition Yposition Zposition Zrotation Xrotation Yrotation
          JOINT LeftToe
          {
            OFFSET 0 -4.4182 9.239
            CHANNELS 6 Xposition Yposition Zposition Zrotation Xrotation Yrotation
            End Site
            {
              OFFSET 0 0 6.1981
            }
          }
        }
      }
    }
  }
}
MOTION
Frames:	4
Frame Time:	0.0333333
0.124621 -0.120499 0.358309 0 0 -0 4.81559e-015 78.7191 0 -5.12381 -5.28256 -7.36157 0 8.7983 -4.7612 0.909616 1.45202 -0.353153 -8.88179e-016 8.0291 0.4195 1.82906 2.89823 -0.729693 2.22045e-016 9.9351 -2.2114 1.82905 2.89822 -0.729689 2.22045e-016 22.3885 -0.4656 -0.0510455 -5.50083 -1.62216 -0.0001 12.643 3.4389 3.45256 -0.475774 0.995878 2.2603 21.606 7.4023 19.3846 0.0169696 -12.2782 13.5163 -1.1332 -5.0146 -8.55743 7.89659 10.2809 -0.0995 -28.05 -0.2431 -11.4221 -13.0402 -15.2737 0.0679 -23.3996 -0.1402 -6.45827 20.77 -17.6718 0.7932 -9.069 2.5189 15.0845 -3.46129 -4.43897 -0.8272 -3.3923 0.5977 -0.324061 -3.84835 -1.7099 -0.5649 -2.3158 0.4082 9.04731 -5.53367 0.922078 0.9159 -9.2044 0.2193 22.7679 -13.8451 1.834 0.0117 -4.1944 -0.0248 -0.831482 -4.83797 0.615972 0.0071 -2.3249 -0.0142 18.0214 -10.5894 3.43998 0.6113 -8.7231 -2.0637 32.1168 -20.4413 11.1398 -0.1927 -3.8059 -0.2383 -1.06631 -7.11107 1.64866 -0.1091 -2.1688 -0.1362 21.3015 -13.3251 5.28445 -0.6151 -8.0947 -3.5641 31.8989 -18.9262 12.5455 -0.4882 -2.341 -0.6462 -0.134557 -8.9058 5.80761 -0.3575 -1.7167 -0.4742 11.2034 -7.22532 2.54608 -1.42 -1.8761 1.4223 18.8058 -3.71339 1.98039 -1.1471 -3.4929 2.6334 -2.76414 -0.176516 0.333122 -0.823 -2.3 1.6571 -0.0109128 -0.0143611 0.00294206 -2.2603 21.606 7.4023 -14.4151 0.200134 4.10031 -13.5187 -1.1334 -5.0155 1.20344 10.6087 -14.2131 0.0994 -28.0499 -0.2431 9.61794 -10.0734 24.5489 -0.0679 -23.3996 -0.1402 6.27859 -7.03077 25.9345 -0.7932 -9.0691 2.5189 -9.80886 1.70792 6.13367 0.8272 -3.3923 0.5977 -0.0797623 -0.771775 0.933687 0.565 -2.3158 0.4082 -4.7054 -1.61044 0.00971614 -0.916 -9.2044 0.2193 -19.4983 -7.16846 1.45938 -0.0117 -4.1944 -0.0248 0.207932 -1.10884 -0.141595 -0.0071 -2.3249 -0.0142 -14.4941 -4.81782 -0.959047 -0.6113 -8.7231 -2.0637 -24.6792 -10.6278 -4.7287 0.1927 -3.8059 -0.2383 0.18632 -1.1379 -0.576978 0.1091 -2.1688 -0.1362 -13.2096 -4.93257 -1.3166 0.6151 -8.0947 -3.564 -27.1703 -9.83224 -6.82373 0.4882 -2.341 -0.6462 -0.440114 -2.17642 -3.80315 0.3574 -1.7166 -0.4742 -4.923 -1.81161 -0.495518 1.4199 -1.8761 1.4221 -20.3909 2.86721 1.37149 1.1472 -3.4929 2.6336 0.772665 -0.692638 -0.801309 0.8229 -2.3 1.6571 -1.16584 2.63367 0.854932 -9.412 3.9771 -0.7758 11.4316 8.87062 11.3088 -0.7531 -40.938 0 -2.22196 0.0499467 0.162576 2.77556e-016 -40.1986 0 -2.97413 -4.42119 -17.5527 2.22045e-016 -4.4182 9.239 0.870827 5.71064 -0.469489 9.4119 3.9773 -0.7758 0.965039 4.78417 -14.0663 0.7532 -40.9383 1.66534e-016 0.0841732 8.23161 0.167571 0 -40.1986 0 2.99028 -6.32367 -4.93908 8.88179e-016 -4.4182 9.239 0.00500383 -0.0467146 9.47146e-005 
0.112877 -0.11824 0.339408 0 0 -0 4.81559e-015 78.7191 0 -5.02327 -5.15881 -7.37232 0 8.7983 -4.7612 0.913193 1.41338 -0.367856 0 8.0291 0.4195 1.83628 2.82068 -0.75854 0 9.9351 -2.2114 1.83629 2.82068 -0.758539 -2.22045e-016 22.3885 -0.4656 -0.0466782 -5.67701 -1.52283 -0.0001 12.643 3.4389 3.38443 -0.525071 1.05487 2.2603 21.606 7.4023 19.3759 0.0244303 -12.2053 13.5163 -1.1332 -5.0146 -8.60528 7.77153 10.2328 -0.0995 -28.05 -0.2431 -11.4071 -13.0481 -15.1559 0.0679 -23.3996 -0.1402 -6.47359 20.7702 -17.4043 0.7932 -9.069 2.5189 15.0819 -3.45936 -4.43927 -0.8272 -3.3923 0.5977 -0.324016 -3.84764 -1.70952 -0.5649 -2.3158 0.4082 9.04568 -5.53271 0.921847 0.9159 -9.2044 0.2193 22.7637 -13.8427 1.83262 0.0117 -4.1944 -0.0248 -0.831287 -4.83663 0.615944 0.0071 -2.3249 -0.0142 18.0192 -10.5883 3.43941 0.6113 -8.7231 -2.0637 32.1123 -20.4394 11.1377 -0.1927 -3.8059 -0.2383 -1.06615 -7.10956 1.64852 -0.1091 -2.1688 -0.1362 21.2993 -13.3239 5.28371 -0.6151 -8.0947 -3.5641 31.8932 -18.9241 12.5429 -0.4882 -2.341 -0.6462 -0.134578 -8.90477 5.80715 -0.3575 -1.7167 -0.4742 11.2004 -7.2235 2.54523 -1.42 -1.8761 1.4223 18.8058 -3.71345 1.98016 -1.1471 -3.4929 2.6334 -2.76413 -0.176501 0.333121 -0.823 -2.3 1.6571 -0.010902 -0.0143732 0.0029442 -2.2603 21.606 7.4023 -14.4863 0.197183 4.17024 -13.5187 -1.1334 -5.0155 1.16463 10.7115 -14.2664 0.0994 -28.0499 -0.2431 9.59956 -10.083 24.5878 -0.0679 -23.3996 -0.1402 6.32068 -6.67161 25.9687 -0.7932 -9.0691 2.5189 -9.80816 1.70825 6.13364 0.8272 -3.3923 0.5977 -0.0797388 -0.771659 0.933559 0.565 -2.3158 0.4082 -4.70497 -1.6103 0.00971745 -0.916 -9.2044 0.2193 -19.4938 -7.16681 1.46004 -0.0117 -4.1944 -0.0248 0.207854 -1.10832 -0.141568 -0.0071 -2.3249 -0.0142 -14.4918 -4.81709 -0.958798 -0.6113 -8.7231 -2.0637 -24.6745 -10.6265 -4.72761 0.1927 -3.8059 -0.2383 0.186164 -1.13711 -0.576626 0.1091 -2.1688 -0.1362 -13.2074 -4.93177 -1.31628 0.6151 -8.0947 -3.564 -27.1646 -9.83087 -6.82229 0.4882 -2.341 -0.6462 -0.439934 -2.17598 -3.80258 0.3574 -1.7166 -0.4742 -4.91927 -1.81025 -0.49507 1.4199 -1.8761 1.4221 -20.391 2.86721 1.37169 1.1472 -3.4929 2.6336 0.772689 -0.692624 -0.801313 0.8229 -2.3 1.6571 -1.16585 2.63367 0.854929 -9.412 3.9771 -0.7758 11.3231 8.7547 10.9197 -0.7531 -40.938 0 -2.21808 0.00135377 0.154643 0 -40.1986 0 -2.88127 -4.33531 -17.002 -2.22045e-016 -4.4182 9.239 0.819402 5.42324 -0.414012 9.4119 3.9773 -0.7758 0.921552 4.58801 -13.7332 0.7532 -40.9383 -5.55112e-017 0.0568803 8.17933 0.162127 0 -40.1986 -8.88179e-016 2.97326 -6.23898 -5.17037 -8.88179e-016 -4.4182 9.239 0.00503682 -0.0469813 8.86017e-005 
0.0583275 -0.125267 0.316085 0 0 -0 4.82253e-015 78.7191 0 -5.00271 -5.12216 -7.37381 0 8.7983 -4.7612 0.926613 1.40522 -0.360271 0 8.0291 0.4195 1.8629 2.80442 -0.743557 0 9.9351 -2.2114 1.8629 2.80442 -0.743556 2.22045e-016 22.3885 -0.4656 -0.0440054 -5.82462 -1.46518 -0.0001 12.643 3.4389 3.42931 -0.590822 1.09163 2.2603 21.606 7.4023 19.4196 0.0249907 -12.1969 13.5163 -1.1332 -5.0146 -8.60969 7.53303 10.175 -0.0995 -28.05 -0.2431 -11.3662 -12.9856 -14.906 0.0679 -23.3996 -0.1402 -6.57825 20.3869 -17.3394 0.7932 -9.069 2.5189 15.0792 -3.45745 -4.43957 -0.8272 -3.3923 0.5977 -0.323945 -3.84693 -1.70913 -0.5649 -2.3158 0.4082 9.04405 -5.53174 0.921611 0.9159 -9.2044 0.2193 22.7595 -13.8404 1.83124 0.0117 -4.1944 -0.0248 -0.831085 -4.8353 0.615926 0.0071 -2.3249 -0.0142 18.0171 -10.5872 3.43882 0.6113 -8.7231 -2.0637 32.1077 -20.4376 11.1355 -0.1927 -3.8059 -0.2383 -1.06585 -7.10806 1.64842 -0.1091 -2.1688 -0.1362 21.2972 -13.3227 5.28295 -0.6151 -8.0947 -3.5641 31.8876 -18.922 12.5403 -0.4882 -2.341 -0.6462 -0.134579 -8.90372 5.8067 -0.3575 -1.7167 -0.4742 11.1974 -7.22164 2.54438 -1.42 -1.8761 1.4223 18.8059 -3.71351 1.97997 -1.1471 -3.4929 2.6334 -2.76415 -0.176519 0.333117 -0.823 -2.3 1.6571 -0.0109012 -0.0143813 0.00295901 -2.2603 21.606 7.4023 -14.5074 0.195505 4.21462 -13.5187 -1.1334 -5.0155 1.17308 10.7077 -14.2686 0.0994 -28.0499 -0.2431 9.56774 -10.0214 24.5697 -0.0679 -23.3996 -0.1402 6.39322 -6.55381 25.9046 -0.7932 -9.0691 2.5189 -9.80746 1.70856 6.1336 0.8272 -3.3923 0.5977 -0.0797488 -0.77153 0.933376 0.565 -2.3158 0.4082 -4.70453 -1.61013 0.00973247 -0.916 -9.2044 0.2193 -19.4894 -7.1652 1.46069 -0.0117 -4.1944 -0.0248 0.207806 -1.10779 -0.141527 -0.0071 -2.3249 -0.0142 -14.4895 -4.81634 -0.958557 -0.6113 -8.7231 -2.0637 -24.67 -10.6252 -4.72655 0.1927 -3.8059 -0.2383 0.186123 -1.13631 -0.576277 0.1091 -2.1688 -0.1362 -13.2051 -4.93097 -1.31595 0.6151 -8.0947 -3.564 -27.1589 -9.8295 -6.82086 0.4882 -2.341 -0.6462 -0.439959 -2.17557 -3.80198 0.3574 -1.7166 -0.4742 -4.91554 -1.8089 -0.494645 1.4199 -1.8761 1.4221 -20.3911 2.86723 1.37188 1.1472 -3.4929 2.6336 0.772717 -0.692675 -0.801321 0.8229 -2.3 1.6571 -1.16587 2.63366 0.854944 -9.412 3.9771 -0.7758 11.3136 8.7115 10.4337 -0.7531 -40.938 0 -2.2335 0.00133792 0.164734 3.88578e-016 -40.1986 0 -2.82214 -4.35973 -16.2719 0 -4.4182 9.239 0.812428 5.43285 -0.378609 9.4119 3.9773 -0.7758 0.940748 4.58697 -13.5804 0.7532 -40.9383 -1.11022e-016 0.0780741 8.19988 0.156786 0 -40.1986 0 2.93272 -6.31235 -5.28009 0 -4.4182 9.239 0.00506333 -0.0472554 8.09569e-005 
-0.00653061 -0.119804 0.307714 0 0 -0 4.81993e-015 78.7191 0 -4.94806 -5.03594 -7.40227 -8.88179e-016 8.7983 -4.7612 0.928315 1.38062 -0.344219 -8.88179e-016 8.0291 0.4195 1.86571 2.75547 -0.71108 4.44089e-016 9.9351 -2.2114 1.86572 2.75546 -0.711084 2.22045e-016 22.3885 -0.4656 -0.0438709 -5.87924 -1.46765 -0.0001 12.643 3.4389 3.4893 -0.603079 1.0831 2.2603 21.606 7.4023 19.5106 0.029239 -12.1517 13.5163 -1.1332 -5.0146 -8.60615 7.36459 10.1223 -0.0995 -28.05 -0.2431 -11.3296 -12.9389 -14.767 0.0679 -23.3996 -0.1402 -6.61771 19.9844 -17.3947 0.7932 -9.069 2.5189 15.0766 -3.45555 -4.43988 -0.8272 -3.3923 0.5977 -0.323854 -3.8462 -1.70874 -0.5649 -2.3158 0.4082 9.04242 -5.53077 0.921364 0.9159 -9.2044 0.2193 22.7554 -13.838 1.82985 0.0117 -4.1944 -0.0248 -0.830866 -4.83398 0.615926 0.0071 -2.3249 -0.0142 18.0089 -10.5828 3.43655 0.6113 -8.7231 -2.0637 32.1031 -20.4357 11.1334 -0.1927 -3.8059 -0.2383 -1.06563 -7.10655 1.64828 -0.1091 -2.1688 -0.1362 21.289 -13.3182 5.28007 -0.6151 -8.0947 -3.5641 31.8819 -18.9198 12.5377 -0.4882 -2.341 -0.6462 -0.134562 -8.90068 5.80538 -0.3575 -1.7167 -0.4742 11.1944 -7.2198 2.5435 -1.42 -1.8761 1.4223 18.8059 -3.71358 1.97977 -1.1471 -3.4929 2.6334 -2.76413 -0.17647 0.333116 -0.823 -2.3 1.6571 -0.010907 -0.0143586 0.00295412 -2.2603 21.606 7.4023 -14.5359 0.192944 4.28722 -13.5187 -1.1334 -5.0155 1.3032 10.6737 -14.2547 0.0994 -28.0499 -0.2431 9.51796 -9.98578 24.4497 -0.0679 -23.3996 -0.1402 6.48142 -6.45574 26.0448 -0.7932 -9.0691 2.5189 -9.80676 1.70888 6.13357 0.8272 -3.3923 0.5977 -0.0797584 -0.771421 0.933234 0.565 -2.3158 0.4082 -4.70409 -1.61 0.00973473 -0.916 -9.2044 0.2193 -19.485 -7.16359 1.46136 -0.0117 -4.1944 -0.0248 0.207679 -1.10728 -0.141494 -0.0071 -2.3249 -0.0142 -14.4796 -4.81318 -0.957505 -0.6113 -8.7231 -2.0637 -24.6654 -10.6239 -4.72542 0.1927 -3.8059 -0.2383 0.186008 -1.13553 -0.575937 0.1091 -2.1688 -0.1362 -13.1954 -4.92751 -1.31458 0.6151 -8.0947 -3.564 -27.1531 -9.82813 -6.8194 0.4882 -2.341 -0.6462 -0.439767 -2.17431 -3.80025 0.3574 -1.7166 -0.4742 -4.91183 -1.80754 -0.494194 1.4199 -1.8761 1.4221 -20.3911 2.86725 1.37207 1.1472 -3.4929 2.6336 0.772701 -0.692716 -0.801298 0.8229 -2.3 1.6571 -1.16586 2.63367 0.854949 -9.412 3.9771 -0.7758 11.2666 8.63723 10.386 -0.7531 -40.938 0 -2.22238 0.00133692 0.14646 3.88578e-016 -40.1986 8.88179e-016 -2.83868 -4.41092 -15.9728 -4.44089e-016 -4.4182 9.239 0.827936 5.57412 -0.367964 9.4119 3.9773 -0.7758 0.962471 4.52707 -13.6458 0.7532 -40.9383 8.32667e-016 0.0593604 8.05233 0.149052 0 -40.1986 0 2.89082 -6.20679 -5.20538 8.88179e-016 -4.4182 9.239 0.00509203 -0.0475477 6.87083e-005 
